<svg xmlns="http://www.w3.org/2000/svg" xmlns:xlink="http://www.w3.org/1999/xlink" version="1.1">
    <defs>
        <symbol id="logo" viewBox="0 0 442 65">
            <path fill="currentColor" fill-rule="evenodd" d="M24.08 6.287c.486.004 1.088.245 1.435.585a350.615 350.615 0 0 1 7.099 7.17c.32.332.57.89.577 1.346.047 3.636.025 7.273.033 10.91.001.572-.043 1.01-.805 1.005l-3.72-.017-7.438-.013c-.102 0-.204-.06-.494-.15v-8.192h-8.205v33.434h8.226c0-2.405.056-4.737-.025-7.064-.037-1.06.322-1.308 1.312-1.292 3.313.055 6.628.045 9.942.003.883-.011 1.233.216 1.22 1.174l-.02 2.644-.002 5.288c-.003.881-.008 1.762-.02 2.643-.007.496-.235 1.11-.574 1.46a408.314 408.314 0 0 1-7.353 7.38c-.249.245-.708.378-1.07.38-5.044.024-10.09.029-15.134-.006-.42-.003-.937-.22-1.24-.513A492.066 492.066 0 0 1 .443 57.11c-.248-.251-.425-.697-.426-1.053-.021-13.619-.02-27.237-.003-40.856 0-.326.145-.736.367-.964 2.422-2.49 4.855-4.97 7.335-7.4.344-.337.96-.548 1.452-.552 4.97-.04 9.942-.04 14.913.002Zm57.037-.117c3.314.068 6.63.046 9.945.009.84-.01 1.158.209 1.157 1.122-.024 18.893-.018 37.787-.02 56.68 0 .29-.04.58-.071 1.015-4.02 0-7.92.023-11.82-.045-.317-.005-.767-.581-.912-.982-1.839-5.084-3.632-10.186-5.44-15.282-.728-2.055-1.463-4.107-2.418-6.138v22.354H58.974V7.37c.007-1.08.091-1.167 1.158-1.174h.288c3.278-.004 6.557.034 9.835-.026.95-.018 1.328.332 1.631 1.205 2.369 6.823 4.792 13.627 7.2 20.436.129.363.28.718.42 1.076l.284-.031v-1.258l.005-10.023c0-3.34-.005-6.681-.027-10.022-.007-1.058.266-1.406 1.35-1.383Zm54.87-.1c3.313.083 6.63.056 9.943.012.824-.01 1.235.246 1.544 1.037 2.367 6.073 4.781 12.127 7.183 18.186.188.476.392.945.689 1.657.239-.52.395-.821.52-1.135 2.452-6.198 4.917-12.39 7.33-18.602.34-.874.792-1.161 1.712-1.146 3.387.055 6.776.043 10.163.008.798-.008 1.086.2 1.085 1.058-.023 18.964-.018 37.928-.02 56.892 0 .255-.035.509-.059.835h-12.363V44.76l-.306-.067-8.031 20.206-8.034-20.183-.27.054V64.87H134.61v-1.37c0-18.667.01-37.334-.025-56.002-.002-1.116.26-1.457 1.403-1.428Zm162.813.007c8.838.042 17.676.038 26.513.002.958-.004 1.269.23 1.25 1.23-.06 3.376-.021 6.754-.025 10.13 0 .364-.03.728-.053 1.246h-7.536c-2.651 0-5.304.037-7.954-.02-.902-.02-1.12.3-1.106 1.152.045 2.783.052 5.567-.001 8.35-.016.855.263 1.064 1.069 1.058 4.75-.032 9.5-.016 14.25-.016h1.26v12.647h-1.258c-4.713 0-9.427.022-14.14-.02-.916-.008-1.202.257-1.183 1.187.056 2.707.055 5.418 0 8.126-.018.915.24 1.21 1.17 1.203 4.714-.042 9.427-.018 14.14-.018h1.26v12.562h-28.888c-.03-.45-.083-.878-.083-1.306-.003-18.702.005-37.404-.02-56.107-.002-1.035.235-1.411 1.335-1.406Zm115.283 0c8.95.032 17.898.021 26.848.026.325 0 .65.036 1.045.058v12.524h-1.167l-7.127.006c-2.375 0-4.75-.005-7.126-.025-.877-.008-1.144.25-1.13 1.13.045 3.073.017 6.148.017 9.372H442v12.687h-1.223c-4.714 0-9.429.02-14.143-.017-.88-.007-1.233.195-1.212 1.16.06 2.745.06 5.493 0 8.238-.02.925.322 1.117 1.15 1.112 4.677-.03 9.355-.015 14.032-.015h1.373v12.555h-28.982c-.023-.345-.066-.7-.066-1.056-.003-18.854.003-37.708-.022-56.561-.001-.927.262-1.196 1.176-1.193ZM253.325 6.1v12.587h-11.157c-1.12.006-1.206.091-1.213 1.186v45.005h-12.336c-.027-.46-.078-.924-.078-1.389l-.003-21.604V19.972c-.008-1.239-.106-1.286-1.468-1.287H215.961v-2.31c0-2.82-.012-5.642.005-8.463.01-1.803-.286-1.816 1.393-1.811h.35l17.24-.002h18.376Zm26.457-.026c3.64.07 7.281.027 11.012.027v58.77H278.48c-.031-.411-.09-.835-.091-1.26-.009-6.753-.009-13.507-.012-20.26 0-1.44-.003-1.492-1.367-1.494h-6.904v23.02h-12.43c-.022-.432-.06-.828-.06-1.224-.004-18.74.006-37.48-.027-56.22-.001-1.094.33-1.374 1.376-1.355 3.313.063 6.629.056 9.942.006.922-.014 1.187.264 1.182 1.192-.036 6.827-.02 13.656-.02 20.483v1.403h8.252c.021-.503.059-.965.059-1.428.002-6.754.03-13.508-.031-20.26-.01-1.17.335-1.421 1.432-1.4Zm-179.617.001c8.84.046 17.678.045 26.517.002 1.078-.006 1.358.31 1.337 1.368-.065 3.34-.023 6.68-.026 10.02 0 .363-.03.725-.052 1.22h-16.516v10.469h16.523v12.661h-16.5v10.458h16.454v12.603H98.907c-.022-.447-.063-.88-.063-1.311-.003-18.706.006-37.411-.024-56.117-.002-1.057.257-1.379 1.345-1.373Zm257.086-.02c.51.005 1.138.282 1.508.643a265.615 265.615 0 0 1 6.938 7.018c.405.426.71 1.146.712 1.73.041 11.989.04 23.977.005 35.966-.002.524-.268 1.167-.626 1.548-1.031 1.097-2.173 2.088-3.271 3.12l.231.415c1.94 0 3.882.037 5.82-.017.877-.025 1.248.183 1.214 1.158-.071 2.039-.047 4.082-.007 6.123.014.749-.185 1.038-.984 1.036-8.84-.026-17.679-.01-26.518-.045-.453 0-1.014-.235-1.34-.553a324.01 324.01 0 0 1-7.042-7.07c-.361-.375-.642-1.013-.643-1.53a8273.697 8273.697 0 0 1-.004-40.307c.001-.49.243-1.097.579-1.449a296.66 296.66 0 0 1 7.018-7.093c.395-.385 1.06-.685 1.604-.69 4.935-.053 9.87-.05 14.806-.003ZM51.284.178c.828-.01 1.065.246 1.064 1.075-.02 18.925-.02 37.85.002 56.777 0 .872-.246 1.15-1.125 1.137a314.28 314.28 0 0 0-10.053.004c-1.014.019-1.318-.274-1.314-1.308.037-9.388.022-18.777.022-28.165 0-9.351-.002-18.703 0-28.054.001-1.447.008-1.448 1.462-1.449 3.314 0 6.629.025 9.942-.017Zm353.992.001c.828-.009 1.077.265 1.076 1.087-.018 16.179-.008 32.358-.039 48.537 0 .49-.261 1.094-.601 1.449a408.392 408.392 0 0 1-7.316 7.42c-.276.273-.77.454-1.163.456-5.008.03-10.016.033-15.024-.002a1.971 1.971 0 0 1-1.25-.516 467.025 467.025 0 0 1-7.404-7.492c-.269-.278-.453-.769-.453-1.161-.023-16.29-.02-32.58-.016-48.872 0-.25.044-.5.08-.886 3.992 0 7.856-.013 11.72.032.228.003.597.445.648.728.104.576.034 1.182.034 1.776v42.303c0 1.444.003 1.445 1.444 1.446 1.768.002 3.535.002 5.303 0h.305c1.227-.007 1.274-.1 1.275-1.388V.287c.429-.04.713-.087.997-.088 3.461-.005 6.923.02 10.384-.02ZM207.328 0l10.767 58.748c-.421.063-.664.13-.908.13-3.534.007-7.07-.013-10.604.019-.746.006-.991-.247-1.102-.989-.365-2.45-.824-4.888-1.268-7.453h-5.217c-1.436.001-2.873.042-4.308-.01-.78-.03-.99.321-1.095 1.024-.328 2.2-.7 4.393-1.112 6.578-.058.308-.43.793-.662.796-3.86.05-7.722.036-11.857.036L190.71 0h16.618Zm146.64 18.72h-8.183c-.033.236-.08.413-.08.59-.004 10.685.002 21.37-.016 32.055-.001.77.324.93.999.92 2.025-.028 4.052-.068 6.074.015 1.052.043 1.287-.338 1.283-1.33-.03-10.352-.019-20.702-.022-31.054 0-.395-.036-.792-.056-1.196Zm-154.806 1.91-.347.036-2.827 17.12h6.08l-2.906-17.157Z"/>
        </symbol>

        <symbol id="search" viewBox="0 0 14 14">
            <g clip-path="url(#clip-85C7B08D-B88B-DBB1-1268-C663F0816BCE)"><path fill="currentColor" d="M7.17 2.898A3.02 3.02 0 1 1 2.897 7.17 3.02 3.02 0 0 1 7.17 2.9c1.18 1.179 0 0 0 0zM9.233 7.81a5.035 5.035 0 0 0-7.76-6.336 5.034 5.034 0 0 0 6.336 7.76L12.576 14 14 12.576 9.234 7.81c1.295-1.954 0 0 0 0z"/></g>
        </symbol>

        <symbol id="close" viewBox="0 0 14 14">
            <path fill="currentColor" d="M11.488.75L7 5.237 2.513.75.75 2.512 5.238 7 .75 11.487l1.763 1.763L7 8.763l4.488 4.487 1.762-1.762L8.763 7l4.487-4.487z"/>
        </symbol>

        <symbol id="facebook" viewBox="0 0 20 20">
            <path fill="currentColor" d="M0 9.999c0 4.99 3.656 9.126 8.437 9.879V12.89h-2.54V9.999h2.54V7.796c0-2.508 1.493-3.891 3.776-3.891 1.094 0 2.24.195 2.24.195v2.459h-1.264c-1.24 0-1.628.772-1.628 1.563v1.875h2.771l-.443 2.891h-2.328v6.988c4.781-.749 8.437-4.886 8.437-9.877C19.998 4.477 15.521 0 9.999 0S0 4.477 0 9.999z"/>
        </symbol>

        <symbol id="twitter" viewBox="0 0 22 17">
            <path fill="currentColor" d="M18.994 2.688A4.305 4.305 0 0020.88.314a8.591 8.591 0 01-2.726 1.041 4.292 4.292 0 00-7.313 3.914A12.184 12.184 0 011.996.787a4.271 4.271 0 00-.58 2.157 4.29 4.29 0 001.908 3.572 4.276 4.276 0 01-1.943-.537v.054a4.295 4.295 0 003.442 4.209 4.296 4.296 0 01-1.938.073 4.296 4.296 0 004.009 2.98 8.61 8.61 0 01-5.33 1.838c-.347 0-.688-.02-1.024-.06A12.147 12.147 0 007.119 17c7.894 0 12.21-6.54 12.21-12.21 0-.187-.004-.372-.012-.556a8.719 8.719 0 002.141-2.222 8.58 8.58 0 01-2.464.676z"/>
        </symbol>

        <symbol id="instagram" viewBox="0 0 25 25">
            <path fill="currentColor" d="M22.08 17.464v.001h.015c.058-1.274.058-1.624.058-4.872 0-3.249-.015-3.605-.072-4.873a6.774 6.774 0 0 0-.415-2.225 3.989 3.989 0 0 0-2.283-2.283 6.614 6.614 0 0 0-2.226-.415c-1.29-.073-1.623-.073-4.872-.073-3.25 0-3.606.016-4.874.073-.758.011-1.513.151-2.225.415a3.982 3.982 0 0 0-2.292 2.283 6.717 6.717 0 0 0-.415 2.249c-.07 1.292-.07 1.624-.07 4.873 0 3.248.013 3.606.07 4.872.012.76.154 1.514.415 2.226a3.98 3.98 0 0 0 2.292 2.281 6.613 6.613 0 0 0 2.225.415c1.291.073 1.623.073 4.874.073 3.248 0 3.605-.015 4.872-.073a6.647 6.647 0 0 0 2.226-.415 3.983 3.983 0 0 0 2.283-2.281 6.725 6.725 0 0 0 .415-2.251zm1.625-12.71c.357.945.544 1.946.561 2.957.075 1.276.075 1.689.075 4.946 0 3.258-.018 3.664-.075 4.947a8.78 8.78 0 0 1-.559 2.915 6.15 6.15 0 0 1-3.51 3.51 8.82 8.82 0 0 1-2.915.559c-1.273.073-1.69.073-4.947.073-3.256 0-3.662-.017-4.946-.073a8.779 8.779 0 0 1-2.914-.6 6.146 6.146 0 0 1-3.512-3.51 8.794 8.794 0 0 1-.558-2.915C.33 16.287.33 15.872.33 12.616c0-3.257.017-3.664.075-4.947a8.78 8.78 0 0 1 .558-2.914 6.133 6.133 0 0 1 3.511-3.51 8.739 8.739 0 0 1 2.912-.56C8.659.613 9.076.613 12.333.613c3.256 0 3.662.016 4.946.072.998.022 1.983.21 2.915.56a6.14 6.14 0 0 1 3.51 3.51zm-4.97 2.9a1.437 1.437 0 1 1 0-2.875 1.437 1.437 0 0 1 0 2.874zm-6.409 8.958a4.003 4.003 0 0 0 4.003-4.004 4.004 4.004 0 1 0-4.003 4.004zm0-10.17a6.165 6.165 0 1 1-.002 12.331 6.165 6.165 0 0 1 .002-12.33z"/>
        </symbol>

        <symbol id="tiktok" viewBox="0 0 20 20">
            <path fill="currentColor" d="M14.426 7.345v1.3a4.534 4.534 0 0 1-2.778-.943l.009 4a3.35 3.35 0 0 1-1.007 2.386 3.426 3.426 0 0 1-2.43.994 3.439 3.439 0 0 1-2.43-.994 3.352 3.352 0 0 1-1-2.613c.047-.75.347-1.465.848-2.026A3.438 3.438 0 0 1 8.22 8.296c.175 0 .348.013.517.038v1.818A1.622 1.622 0 0 0 6.6 11.714a1.62 1.62 0 0 0 .793 1.365 1.616 1.616 0 0 0 1.344.147 1.62 1.62 0 0 0 1.114-1.537l.003-2.68V4.12h1.792a2.768 2.768 0 0 0 1.105 2.187c.464.35 1.043.557 1.67.557h.005v.482zm0-.482zM9.6 0C4.299 0 0 4.299 0 9.6c0 5.301 4.299 9.6 9.6 9.6 5.301 0 9.6-4.299 9.6-9.6 0-5.301-4.299-9.6-9.6-9.6z"/>
        </symbol>

        <symbol id="twitter" viewBox="0 0 29 24">
            <path fill="currentColor" d="M25.128 4.518a5.74 5.74 0 0 0 2.516-3.166A11.455 11.455 0 0 1 24.01 2.74 5.714 5.714 0 0 0 19.834.933a5.722 5.722 0 0 0-5.575 7.026A16.245 16.245 0 0 1 2.465 1.981a5.695 5.695 0 0 0-.775 2.876A5.72 5.72 0 0 0 4.236 9.62a5.701 5.701 0 0 1-2.592-.715v.072a5.726 5.726 0 0 0 4.59 5.61 5.729 5.729 0 0 1-2.584.099 5.728 5.728 0 0 0 5.345 3.973 11.48 11.48 0 0 1-7.107 2.45c-.462 0-.917-.027-1.365-.08A16.196 16.196 0 0 0 9.295 23.6c10.525 0 16.28-8.72 16.28-16.281 0-.248-.005-.495-.016-.74a11.625 11.625 0 0 0 2.856-2.963 11.44 11.44 0 0 1-3.287.902z"/>
        </symbol>

        <symbol id="vimeo" viewBox="0 0 24 24">
            <path d="m20.497 1.505c-3.328-.121-5.576 1.787-6.762 5.694.61-.273 1.203-.395 1.777-.395 1.219 0 1.758.697 1.614 2.082-.072.839-.608 2.059-1.612 3.664-1.009 1.605-1.763 2.409-2.265 2.409-1.522 0-2.437-7.284-2.747-9.273-.431-2.765-1.58-4.058-3.447-3.877-1.714.163-4.705 3.249-7.055 5.341l1.129 1.472c1.075-.762 1.702-1.144 1.881-1.144 1.871 0 2.777 6.367 4.23 11.102.975 2.613 2.144 3.92 3.553 3.92 2.264 0 5.022-2.144 8.29-6.434 3.155-4.107 4.789-7.344 4.894-9.705l.013-.01c.134-3.165-1.021-4.785-3.493-4.846z"/>
        </symbol>

        <symbol id="thinArrowRight" viewBox="0 0 24 14">
            <g clip-path="url(#clip-3868B335-64E7-B2CC-4624-336A9127C055)" transform="rotate(-180 12 7)"><path fill="currentColor" d="M6.5.5 0 7l6.5 6.5.707-.707L1.914 7.5H24v-1H1.914l5.293-5.293z"/></g>
        </symbol>

        <symbol id="spinner" viewBox="0 0 32 32">
            <path d="M16 32c-4.274 0-8.292-1.664-11.314-4.686s-4.686-7.040-4.686-11.314c0-3.026 0.849-5.973 2.456-8.522 1.563-2.478 3.771-4.48 6.386-5.791l1.344 2.682c-2.126 1.065-3.922 2.693-5.192 4.708-1.305 2.069-1.994 4.462-1.994 6.922 0 7.168 5.832 13 13 13s13-5.832 13-13c0-2.459-0.69-4.853-1.994-6.922-1.271-2.015-3.066-3.643-5.192-4.708l1.344-2.682c2.615 1.31 4.824 3.313 6.386 5.791 1.607 2.549 2.456 5.495 2.456 8.522 0 4.274-1.664 8.292-4.686 11.314s-7.040 4.686-11.314 4.686z"/>
        </symbol>

        <symbol id="chevron" viewBox="0 0 12 8">
            <path fill="currentColor" d="M6 7.715l6.01-6.01L10.598.29 6 4.886 1.404.29-.01 1.704z"/>
        </symbol>

        <symbol id="chevronRight" viewBox="0 0 8 12">
            <path fill="currentColor" d="m7.715 6-6.01-6L.29 1.404 4.886 6 .29 10.597 1.704 12z"/>
        </symbol>

        <symbol id="film" viewBox="0 0 32 32">
            <path fill="currentColor" d="M16 4c-6.617 0-12 5.383-12 12s5.383 12 12 12c6.617 0 12-5.383 12-12s-5.383-12-12-12zM16 6c5.535 0 10 4.465 10 10s-4.465 10-10 10c-5.535 0-10-4.465-10-10s4.465-10 10-10zM12 9.125v13.75l1.5-0.875 9-5.125 1.5-0.875-1.5-0.875-9-5.125zM14 12.563l5.969 3.438-5.969 3.438z"></path>
        </symbol>

        <symbol id="camera" viewBox="0 0 32 32">
            <path fill="currentColor" d="M11.5 6l-0.313 0.406-1.188 1.594h-1v-1h-4v1h-2v18h26v-18h-7l-1.188-1.594-0.313-0.406zM12.5 8h7l1.188 1.594 0.313 0.406h6v4h-5.813c-1.043-1.785-2.98-3-5.188-3s-4.145 1.215-5.188 3h-5.813v-4h6l0.313-0.406zM23 11v2h2v-2zM16 13c2.223 0 4 1.777 4 4s-1.777 4-4 4c-2.223 0-4-1.777-4-4s1.777-4 4-4zM5 16h5.094c-0.055 0.32-0.094 0.664-0.094 1 0 3.301 2.699 6 6 6s6-2.699 6-6c0-0.336-0.039-0.68-0.094-1h5.094v8h-22z"></path>
        </symbol>

        <symbol id="paperclip" viewBox="0 0 32 32">
            <path fill="currentColor" d="M2 6v18h13v2h-5v2h12v-2h-5v-2h13v-18zM4 8h24v14h-24z"></path>
        </symbol>

        <symbol id="headphones" viewBox="0 0 32 32">
            <path fill="currentColor" d="M16.5 3c-6.341 0-11.5 5.159-11.5 11.5 0 4.649 2.779 8.654 6.758 10.465-0.113-0.844-0.202-1.682-0.238-2.391-2.707-1.676-4.52-4.663-4.52-8.074 0-5.238 4.262-9.5 9.5-9.5s9.5 4.262 9.5 9.5c0 3.411-1.813 6.398-4.52 8.074-0.036 0.708-0.125 1.547-0.238 2.391 3.979-1.811 6.758-5.816 6.758-10.465 0-6.341-5.159-11.5-11.5-11.5zM16.5 7c-4.136 0-7.5 3.364-7.5 7.5 0 2.354 1.093 4.456 2.795 5.832 0.226-0.611 0.608-1.177 1.143-1.65-1.183-1.010-1.938-2.509-1.938-4.182 0-3.032 2.468-5.5 5.5-5.5s5.5 2.468 5.5 5.5c0 1.673-0.755 3.172-1.938 4.182 0.535 0.472 0.918 1.038 1.143 1.65 1.702-1.376 2.795-3.478 2.795-5.832 0-4.136-3.364-7.5-7.5-7.5zM16.5 11c-1.93 0-3.5 1.57-3.5 3.5s1.57 3.5 3.5 3.5c1.93 0 3.5-1.57 3.5-3.5s-1.57-3.5-3.5-3.5zM16.5 13c0.827 0 1.5 0.673 1.5 1.5s-0.673 1.5-1.5 1.5c-0.827 0-1.5-0.673-1.5-1.5s0.673-1.5 1.5-1.5zM16.5 19c-3.159 0-3.5 2.076-3.5 2.969 0 1.644 0.537 4.951 0.83 6.205 0.129 0.55 0.648 1.826 2.67 1.826s2.541-1.276 2.67-1.826c0.293-1.253 0.83-4.561 0.83-6.205 0-0.893-0.341-2.969-3.5-2.969zM16.5 21c1.5 0 1.5 0.56 1.5 0.969 0 1.335-0.47 4.431-0.777 5.748-0.025 0.105-0.067 0.283-0.723 0.283s-0.698-0.177-0.723-0.281c-0.306-1.314-0.777-4.414-0.777-5.75 0-0.409 0-0.969 1.5-0.969z"></path>
        </symbol>
        
        <symbol id="quote_left" viewBox="0 0 32 32">
            <path fill="currentColor" d="M6 3v26h20v-19.406l-0.281-0.313-6-6-0.313-0.281zM8 5h10v6h6v16h-16zM20 6.438l2.563 2.563h-2.563zM11 13v2h10v-2zM11 17v2h10v-2zM11 21v2h10v-2z"></path>
        </symbol>
    </defs>
</svg>
